<svg xmlns="http://www.w3.org/2000/svg" data-name="Layer 1" viewBox="0 0 68 68"><path fill="#5ba558" d="M35.3 46.87H25.2a8 8 0 0 1-8-8V33a5 5 0 1 1 9.94 0v3.94h8.16a5 5 0 1 1 0 9.94Z"/><path fill="#4e8d4b" d="M39.5 44.56a4.94 4.94 0 0 1-4.2 2.32H25.21a8 8 0 0 1-8-8V33a4.94 4.94 0 0 1 2.36-4.22 4.88 4.88 0 0 0-.78 2.66v5.9a8 8 0 0 0 8 8h10.1a4.91 4.91 0 0 0 2.61-.78Z"/><path fill="#5ba558" d="M44.24 31.62H35.3a5 5 0 1 1 0-9.94h8.94a.5.5 0 0 0 .5-.51V9.45a5 5 0 1 1 9.95 0v11.72a10.46 10.46 0 0 1-10.45 10.45Z"/><path fill="#4e8d4b" d="M54.69 9.44v11.73a10.46 10.46 0 0 1-10.45 10.45H35.3a5 5 0 0 1-4.18-2.28 5.05 5.05 0 0 0 1.94.39H42c5.77 0 10.72-3.11 10.72-8.88l-.27-13.3a4.94 4.94 0 0 0-.79-2.69 5 5 0 0 1 3.03 4.58Z"/><path fill="#5ba558" d="M35.3 59.78a5 5 0 0 1-5-5V7a5 5 0 0 1 10 0v47.81a5 5 0 0 1-5 4.97Z"/><path fill="#4e8d4b" d="M40.27 7v47.81a5 5 0 0 1-5 5 5 5 0 0 1-1.3-.17 5 5 0 0 0 3.66-4.8V7A5 5 0 0 0 34 2.17 5 5 0 0 1 35.3 2a5 5 0 0 1 4.97 5Z"/><path fill="#e1b378" d="M3.5 64.89A204.74 204.74 0 0 1 22.13 56a24.7 24.7 0 0 1 8-2.45c8.62-.59 15.65 7.68 24.27 8.2 1.9.11 3.81-.16 5.69.12s3.8 1.35 4.41 3.13a56.07 56.07 0 0 1-7.63 1Z"/></svg>